<?xml version="1.0" encoding="UTF-8"?>
<!DOCTYPE svg PUBLIC "-//W3C//DTD SVG 1.1//EN" "http://www.w3.org/Graphics/SVG/1.1/DTD/svg11.dtd">
<!-- Creator: CorelDRAW -->
<svg xmlns="http://www.w3.org/2000/svg" xml:space="preserve" width="64px" height="64px" style="shape-rendering:geometricPrecision; text-rendering:geometricPrecision; image-rendering:optimizeQuality; fill-rule:evenodd; clip-rule:evenodd"
viewBox="0 0 640 640"
 xmlns:xlink="http://www.w3.org/1999/xlink">
 <defs>
  <style type="text/css">
   <![CDATA[
    .fil0 {fill:#c5c5c5;fill-rule:nonzero}
   ]]>
  </style>
 </defs>
 <g id="Layer_x0020_1">
  <metadata id="CorelCorpID_0Corel-Layer"/>
  <path class="fil0" d="M23.0554 388.257c-14.9411,-14.3506 -22.6656,-33.4374 -23.0554,-52.666 -0.377957,-19.2168 6.56701,-38.6107 20.9058,-53.5518 14.3388,-14.9293 33.4256,-22.6656 52.6424,-23.0436 19.2286,-0.40158 38.6107,6.53158 53.5637,20.894l129.108 124.23 257.035 -326.508 9.21271 7.01583 -9.22452 -7.05127c0.732292,-0.956705 1.57089,-1.77168 2.50397,-2.4331 15.2837,-13.2403 34.4768,-19.2286 53.2447,-18.201l0 -0.0236223 0.90946 0.0826782c18.8742,1.25198 37.3115,9.63791 50.9179,24.8153 13.8545,15.449 20.1144,35.0674 19.075,54.2369l0.0236223 0 -0.0826782 0.921271c-1.22836,18.5199 -9.33082,36.6382 -24.0121,50.162l-308.472 375.489 0.0236223 0.0236223c-0.578747,0.732292 -1.22836,1.35828 -1.93703,1.91341 -14.4451,12.6852 -32.6815,18.9097 -50.8235,18.5908 -18.2837,-0.318902 -36.5319,-7.26387 -50.7408,-20.9058l-180.817 -173.99z"/>
 </g>
</svg>
