<?xml version="1.0" encoding="UTF-8"?>
<!DOCTYPE svg PUBLIC "-//W3C//DTD SVG 1.1//EN" "http://www.w3.org/Graphics/SVG/1.1/DTD/svg11.dtd">
<!-- Creator: CorelDRAW -->
<svg xmlns="http://www.w3.org/2000/svg" xml:space="preserve" width="64px" height="64px" style="shape-rendering:geometricPrecision; text-rendering:geometricPrecision; image-rendering:optimizeQuality; fill-rule:evenodd; clip-rule:evenodd"
viewBox="0 0 640 640"
 xmlns:xlink="http://www.w3.org/1999/xlink">
 <defs>
  <style type="text/css">
   <![CDATA[
    .fil0 {fill:#747474}
   ]]>
  </style>
 </defs>
 <g id="Layer_x0020_1">
  <metadata id="CorelCorpID_0Corel-Layer"/>
  <path class="fil0" d="M47.1029 50.1738l199.467 0 0 -30.5909c0,-10.7718 8.79932,-19.5829 19.5829,-19.5829l110.116 0c10.7836,0 19.5829,8.81113 19.5829,19.5829l0 30.5909 197.034 0c6.73237,0 12.2246,5.504 12.2246,12.2364l0 59.9653 -570.231 0 0 -59.9653c0,-6.73237 5.49219,-12.2364 12.2246,-12.2364zm33.0358 104.021l483.963 0c10.0867,0 19.2522,8.32687 18.3427,18.3546l-40.9611 449.108c-0.90946,10.0277 -8.27963,18.3427 -18.3546,18.3427l-402.596 0c-10.0749,0 -17.4569,-8.29144 -18.3546,-18.3427l-40.3942 -449.108c-0.897649,-10.0631 8.25601,-18.3546 18.3546,-18.3546zm314.508 69.7568l51.3904 0 0 340.173 -51.3904 0 0 -340.173zm-203.14 0l51.3904 0 0 340.173 -51.3904 0 0 -340.173zm101.564 0l51.4022 0 0 340.173 -51.4022 0 0 -340.173z"/>
 </g>
</svg>
