<?xml version="1.0" encoding="UTF-8"?>
<!DOCTYPE svg PUBLIC "-//W3C//DTD SVG 1.1//EN" "http://www.w3.org/Graphics/SVG/1.1/DTD/svg11.dtd">
<!-- Creator: CorelDRAW -->
<svg xmlns="http://www.w3.org/2000/svg" xml:space="preserve" width="64px" height="64px" style="shape-rendering:geometricPrecision; text-rendering:geometricPrecision; image-rendering:optimizeQuality; fill-rule:evenodd; clip-rule:evenodd"
viewBox="0 0 640 640"
 xmlns:xlink="http://www.w3.org/1999/xlink">
 <defs>
  <style type="text/css">
   <![CDATA[
    .fil0 {fill:#747474}
   ]]>
  </style>
 </defs>
 <g id="Layer_x0020_1">
  <metadata id="CorelCorpID_0Corel-Layer"/>
  <path class="fil0" d="M123.379 92.4106c242.885,-167.908 261.027,164.411 499.565,-43.0753l0 338.591c-227.507,204.581 -276.582,-125.954 -499.565,42.0241l0 -337.54zm-59.9889 -92.4106c25.5948,0 46.347,20.764 46.347,46.347 0,16.9963 -9.15366,31.8429 -22.7837,39.9099l2.18507 0 0 39.7091 0 388.08 0 39.7091 -2.18507 0c13.6301,8.06703 22.7837,18.6144 22.7837,39.9099 0,21.2837 -20.7522,46.3352 -46.347,46.3352 -25.5948,0 -46.347,-25.0515 -46.347,-46.3352 0,-21.2955 9.15366,-31.8429 22.7837,-39.9099l-2.18507 0 0 -39.7091 0 -388.08 0 -39.7091 2.18507 0c-13.6301,-8.06703 -22.7837,-22.9137 -22.7837,-39.9099 0,-25.583 20.7522,-46.347 46.347,-46.347z"/>
 </g>
</svg>
