<?xml version="1.0" encoding="UTF-8"?>
<!DOCTYPE svg PUBLIC "-//W3C//DTD SVG 1.1//EN" "http://www.w3.org/Graphics/SVG/1.1/DTD/svg11.dtd">
<!-- Creator: CorelDRAW -->
<svg xmlns="http://www.w3.org/2000/svg" xml:space="preserve" width="64px" height="64px" style="shape-rendering:geometricPrecision; text-rendering:geometricPrecision; image-rendering:optimizeQuality; fill-rule:evenodd; clip-rule:evenodd"
viewBox="0 0 640 640"
 xmlns:xlink="http://www.w3.org/1999/xlink">
 <defs>
  <style type="text/css">
   <![CDATA[
    .fil0 {fill:#747474}
   ]]>
  </style>
 </defs>
 <g id="Layer_x0020_1">
  <metadata id="CorelCorpID_0Corel-Layer"/>
  <path class="fil0" d="M613.177 48.4376l0 194.589 0 9.99225 -9.98044 0 -194.601 0 -24.1184 0.0118112 17.0553 -17.0671 59.6464 -59.6464c-3.98036,-3.83863 -8.07884,-7.5119 -12.2836,-10.9608 -5.51582,-4.52368 -11.4096,-8.84657 -17.6105,-12.8978l0.0118112 -0.0118112c-31.3468,-20.4451 -68.8119,-32.3272 -109.088,-32.3272l-0.0826782 0 0 -0.0354335c-55.1582,0.0118112 -105.131,22.4058 -141.273,58.5598 -36.1422,36.1422 -58.5243,86.0798 -58.5598,141.191l0.0354335 0 0 0.165356 0 0.0826782 -0.0354335 0c0.0118112,55.1582 22.4058,105.143 58.5598,141.273 36.154,36.154 86.0916,58.5243 141.191,58.5598l0 -0.0354335 0.165356 0 0.236223 0 0 0.0354335c19.7483,-0.0118112 38.8706,-2.92917 56.9298,-8.29144l0 -0.0118112c10.3466,-3.08272 20.3152,-6.96859 29.7523,-11.5277 48.9101,-23.646 86.7412,-66.6859 103.513,-119.104l2.2205 -6.93316 7.25206 0 103.489 0 12.2127 0 -2.45672 11.9765 -0.070867 0.318902 0 0.0354335c-4.28745,20.2798 -10.5119,39.8863 -18.4254,58.548l0 0.0472447c-7.88986,18.579 -17.5514,36.3666 -28.7602,53.0794 -57.4259,85.5837 -155.116,141.958 -265.893,141.958l-0.0826782 0 0 -0.0354335c-88.3594,-0.0236223 -168.38,-35.8587 -226.231,-93.7098l0 -0.0472447c-57.8157,-57.8393 -93.6271,-137.789 -93.6744,-226.054l-0.0354335 0 0 -0.165356 0 -0.0826782 0.0354335 0c0.0236223,-88.3239 35.8587,-168.321 93.7452,-226.196l-0.0236223 -0.0236223c57.8511,-57.8393 137.813,-93.6271 226.101,-93.6744l0 -0.0354335 0.165356 0 0.153545 0 0 0.0354335c45.3785,0.0236223 88.5838,9.50799 127.679,26.5515 6.42528,2.81106 12.7088,5.79928 18.7798,8.91743 28.524,14.7285 54.5558,33.6618 77.2569,55.9259l50.0557 -50.0439 17.0435 -17.0553 0 24.1184z"/>
 </g>
</svg>
