<?xml version="1.0" encoding="UTF-8"?>
<!DOCTYPE svg PUBLIC "-//W3C//DTD SVG 1.1//EN" "http://www.w3.org/Graphics/SVG/1.1/DTD/svg11.dtd">
<!-- Creator: CorelDRAW -->
<svg xmlns="http://www.w3.org/2000/svg" xml:space="preserve" width="64px" height="64px" style="shape-rendering:geometricPrecision; text-rendering:geometricPrecision; image-rendering:optimizeQuality; fill-rule:evenodd; clip-rule:evenodd"
viewBox="0 0 640 640"
 xmlns:xlink="http://www.w3.org/1999/xlink">
 <defs>
  <style type="text/css">
   <![CDATA[
    .fil0 {fill:#747474}
   ]]>
  </style>
 </defs>
 <g id="Layer_x0020_1">
  <metadata id="CorelCorpID_0Corel-Layer"/>
  <path class="fil0" d="M546.29 93.7098c124.95,124.939 124.95,327.642 0,452.58 -124.95,124.95 -327.642,124.95 -452.58,0 -124.95,-124.939 -124.95,-327.63 0,-452.58 124.939,-124.95 327.642,-124.95 452.58,0zm-59.9889 176.482c26.8586,-0.212601 48.5911,21.4018 48.5321,48.2722 -0.0590558,26.8586 -21.8861,48.8156 -48.7565,49.0164 -110.789,0.779537 -221.578,1.54726 -332.378,2.3268 -26.8586,0.212601 -48.5911,-21.4018 -48.5321,-48.2722 0.0590558,-26.8586 21.8861,-48.8156 48.7565,-49.0164m332.378 -2.3268l0 0 0 0z"/>
 </g>
</svg>
