<?xml version="1.0" encoding="UTF-8"?>
<!DOCTYPE svg PUBLIC "-//W3C//DTD SVG 1.1//EN" "http://www.w3.org/Graphics/SVG/1.1/DTD/svg11.dtd">
<!-- Creator: CorelDRAW -->
<svg xmlns="http://www.w3.org/2000/svg" xml:space="preserve" width="64px" height="64px" style="shape-rendering:geometricPrecision; text-rendering:geometricPrecision; image-rendering:optimizeQuality; fill-rule:evenodd; clip-rule:evenodd"
viewBox="0 0 640 640"
 xmlns:xlink="http://www.w3.org/1999/xlink">
 <defs>
  <style type="text/css">
   <![CDATA[
    .fil0 {fill:#c5c5c5}
   ]]>
  </style>
 </defs>
 <g id="Layer_x0020_1">
  <metadata id="CorelCorpID_0Corel-Layer"/>
  <path class="fil0" d="M320 -0.0118112c176.707,0 320.012,143.305 320.012,320.012 0,176.707 -143.305,320.012 -320.012,320.012 -176.707,0 -320.012,-143.305 -320.012,-320.012 0,-176.707 143.305,-320.012 320.012,-320.012zm93.6508 511.554l-187.302 0 0 -31.524 35.1973 0 0 -192.51 -35.1973 0 0 -25.0869 87.5444 0c22.1105,0 43.8667,-2.65751 65.363,-8.07884l0 225.676 34.3941 0 0 31.524zm-81.0482 -401.769c14.5041,0 25.9137,4.19296 34.2288,12.4844 8.22057,8.27963 12.3781,19.642 12.3781,34.276 0,14.8348 -7.07489,28.0279 -21.3192,39.591 -14.3269,11.5631 -30.9453,17.386 -49.8786,17.386 -14.2325,0 -25.5476,-3.98036 -34.217,-11.9647 -8.6694,-8.07884 -13.0041,-18.5199 -13.0041,-31.5122 0,-16.3703 7.07489,-30.4846 21.142,-42.4612 14.0553,-11.8584 30.9453,-17.7994 50.6699,-17.7994z"/>
 </g>
</svg>
