<?xml version="1.0" encoding="UTF-8"?>
<!DOCTYPE svg PUBLIC "-//W3C//DTD SVG 1.1//EN" "http://www.w3.org/Graphics/SVG/1.1/DTD/svg11.dtd">
<!-- Creator: CorelDRAW -->
<svg xmlns="http://www.w3.org/2000/svg" xml:space="preserve" width="64px" height="64px" style="shape-rendering:geometricPrecision; text-rendering:geometricPrecision; image-rendering:optimizeQuality; fill-rule:evenodd; clip-rule:evenodd"
viewBox="0 0 640 640"
 xmlns:xlink="http://www.w3.org/1999/xlink">
 <defs>
  <style type="text/css">
   <![CDATA[
    .fil0 {fill:#747474}
   ]]>
  </style>
 </defs>
 <g id="Layer_x0020_1">
  <metadata id="CorelCorpID_0Corel-Layer"/>
  <path class="fil0" d="M340.882 76.8553l289.563 454.813c8.71664,13.701 16.2404,41.7525 0,41.7525l-620.878 0c-16.2404,0 -8.72845,-28.0515 0,-41.7525l289.551 -454.813c8.72845,-13.701 33.0358,-13.6891 41.7643,0zm-46.2053 375.914l50.4219 0 0 44.5872 -50.4219 0 0 -44.5872zm50.3983 -30.8862l-50.3864 0c-5.01975,-61.2291 -15.5317,-100.088 -15.5317,-161.222 0,-22.5593 18.2837,-40.843 40.843,-40.843 22.5593,0 40.843,18.2837 40.843,40.843 0,61.111 -10.6537,100.041 -15.7679,161.222z"/>
 </g>
</svg>
