<?xml version="1.0" encoding="UTF-8"?>
<!DOCTYPE svg PUBLIC "-//W3C//DTD SVG 1.1//EN" "http://www.w3.org/Graphics/SVG/1.1/DTD/svg11.dtd">
<!-- Creator: CorelDRAW -->
<svg xmlns="http://www.w3.org/2000/svg" xml:space="preserve" width="64px" height="64px" shape-rendering="geometricPrecision" text-rendering="geometricPrecision" image-rendering="optimizeQuality" fill-rule="evenodd" clip-rule="evenodd"
viewBox="0 0 640 640"
 xmlns:xlink="http://www.w3.org/1999/xlink">
 <g id="Layer_x0020_1">
  <metadata id="CorelCorpID_0Corel-Layer"/>
  <path fill="#c5c5c5" d="M321.961 460.116c19.0632,-10.5946 52.5479,-26.1854 100.277,-46.6187 2.40948,-1.19293 8.57491,-3.92131 18.4845,-8.01978 17.1026,-17.386 31.0634,-30.4019 42.3312,-39.1776 11.1261,-8.62215 19.2168,-13.0159 24.1893,-13.0159 6.14181,0 10.6419,1.96065 13.6419,5.76385 2.8583,3.77957 4.35832,9.67335 4.35832,17.6931 0,6.81504 -1.05119,16.3348 -3.14177,28.7366 12.6143,16.0396 18.9215,27.8507 18.9215,35.5634 0,6.51977 -1.81892,11.5159 -5.25597,14.8466 -3.61422,3.46067 -8.87019,5.12605 -15.9096,5.12605 -3.46067,0 -8.87019,-1.81892 -15.9333,-5.59849 -7.20481,-3.62603 -16.3585,-9.07098 -27.4846,-16.1931 -27.0121,5.00794 -65.741,20.2798 -116.186,45.7092 6.4489,3.77957 11.1025,6.63788 14.1143,8.46861 17.5632,9.99225 39.3194,23.457 65.1504,40.2407 3.14177,2.12601 10.5119,6.50795 21.9097,13.323 53.3156,6.18905 80.0325,19.8073 80.0325,40.7013 0,13.6065 -14.4096,22.8428 -43.0871,27.5318 -13.512,16.4766 -24.6263,24.8035 -33.4847,24.8035 -10.5001,0 -20.7286,-13.9254 -30.7799,-41.5989 -0.897649,-3.02366 -2.39767,-7.26387 -4.80715,-12.8742 -41.1265,-34.0398 -78.06,-59.7527 -110.93,-77.1506 -40.0989,22.8428 -77.3277,49.9376 -111.71,81.5443 -4.6536,33.4374 -14.575,50.0794 -29.8941,50.0794 -9.59067,0 -20.705,-9.37807 -33.3193,-28.2877 -29.8823,0 -44.8943,-8.32687 -44.8943,-24.8153 0,-12.1064 5.55125,-20.8703 16.6656,-26.4925 11.1025,-5.42133 34.6776,-10.7245 70.4182,-16.1695 26.5633,-19.6656 58.2527,-39.4847 94.8909,-59.3039 -49.2526,-24.8153 -89.3279,-40.0989 -120.427,-45.7092 -7.35836,6.50795 -14.1143,11.3623 -20.268,14.6931 -6.15362,3.16539 -11.8584,4.83077 -17.1026,4.83077 -7.66545,0 -13.3821,-1.66537 -17.2797,-4.83077 -4.05123,-3.33075 -6.00007,-8.01978 -6.00007,-14.2325 0,-5.58668 6.4489,-17.1026 19.3703,-34.2051 -3.00004,-12.1064 -4.51187,-21.1656 -4.51187,-27.3783 0,-8.91743 1.80711,-15.4372 5.25597,-19.8191 3.60241,-4.2284 8.70483,-6.36622 15.4726,-6.36622 6.74418,0 15.449,4.39375 26.268,13.323 10.9726,8.7757 24.0121,22.2404 39.1895,40.2407 33.7799,12.1064 74.1741,30.4256 121.466,54.6385zm52.4298 -144.498l-8.87019 22.6774c-11.1025,3.8032 -26.2799,5.76385 -45.3431,5.76385 -9.28358,0 -17.8585,-0.448824 -25.5121,-1.52364 -7.65364,-1.05119 -14.2679,-2.42129 -19.7955,-4.24021l-8.87019 -22.6774 -61.4299 -29.6578 -5.68117 -37.2288c-0.90946,-7.0867 -7.21662,-21.0121 -18.9333,-41.7289 -9.15366,-15.2718 -13.6655,-39.9454 -13.6655,-73.9852 0,-39.6501 14.2915,-71.7529 42.6501,-96.2492 28.5358,-24.5082 65.611,-36.7682 111.403,-36.7682 45.6384,0 82.7136,12.26 111.249,36.7682 28.3704,24.4964 42.6383,56.5991 42.6383,96.2492 0,34.0398 -9.47256,67.1701 -28.2523,99.6745 -1.61813,3.63784 -3.12996,8.95287 -4.3347,16.0396l-5.68117 37.2288 -61.5716 29.6578zm28.9846 10.2639l-10.9844 43.7368 -26.8704 23.6105c-4.6536,9.08279 -10.7954,16.0396 -18.638,20.5869 -7.74813,4.53549 -16.949,6.80323 -27.5791,6.80323 -21.1892,0 -36.4847,-9.08279 -46.2407,-27.3901l-26.7759 -23.6105 -11.0671 -43.7368 15.8978 -4.07485c1.80711,4.53549 3.01185,7.86624 3.92131,10.2875 6.74418,15.5907 14.2443,25.8783 22.205,30.8744 8.14971,5.00794 21.4609,7.55915 40.3942,7.55915 21.0357,0 35.7406,-2.39767 43.6895,-7.0867 8.10246,-4.71266 15.6262,-15.1301 22.2168,-31.3468 0.90946,-2.42129 2.24412,-5.75204 4.06304,-10.2875l15.7679 4.07485zm-82.7372 -84.7097c-5.25597,8.78751 -10.6537,16.6537 -16.323,23.457 -7.07489,8.03159 -10.5474,14.2088 -10.5474,18.6144 0,4.68903 1.35828,8.32687 4.20478,10.76 2.69295,2.24412 6.74418,3.46067 12.1773,3.46067 3.12996,0 6.74418,-1.21655 10.4883,-3.46067 3.73233,2.24412 7.35836,3.46067 10.5001,3.46067 10.9962,0 16.3703,-4.80715 16.3703,-14.6695 0,-4.1221 -3.44886,-10.134 -10.4883,-18.1656 -6.01188,-7.11032 -11.4214,-14.8348 -16.3821,-23.457zm-101.186 -35.8469c0,28.2759 12.1537,42.4966 36.4847,42.4966 24.6499,0 36.9571,-15.2718 36.9571,-45.6738 0,-25.1105 -11.8702,-37.654 -35.6225,-37.654 -12.5789,0 -22.0515,3.29532 -28.3704,10.1222 -6.30716,6.80323 -9.44894,17.1144 -9.44894,30.709zm130.313 0c0,28.2759 12.3072,42.4966 36.969,42.4966 24.6027,0 36.8745,-15.2718 36.8745,-45.6738 0,-12.7088 -2.98823,-22.0869 -8.96468,-28.2996 -6.01188,-6.18905 -15.0002,-9.35445 -27.0358,-9.35445 -25.2287,0 -37.843,13.5947 -37.843,40.8312z"/>
 </g>
</svg>
