<?xml version="1.0" encoding="UTF-8"?>
<!DOCTYPE svg PUBLIC "-//W3C//DTD SVG 1.1//EN" "http://www.w3.org/Graphics/SVG/1.1/DTD/svg11.dtd">
<!-- Creator: CorelDRAW -->
<svg xmlns="http://www.w3.org/2000/svg" xml:space="preserve" width="64px" height="64px" shape-rendering="geometricPrecision" text-rendering="geometricPrecision" image-rendering="optimizeQuality" fill-rule="evenodd" clip-rule="evenodd"
viewBox="0 0 640 640"
 xmlns:xlink="http://www.w3.org/1999/xlink">
 <g id="Layer_x0020_1">
  <metadata id="CorelCorpID_0Corel-Layer"/>
  <path fill="#c5c5c5" d="M640 67.6426l0 104.423 -467.108 0 0 -104.423 467.108 0zm-529.932 400.304l0 104.423 -110.068 0 0 -104.423 110.068 0zm0 -200.14l0 104.411 -110.068 0 0 -104.411 110.068 0zm0 -200.164l0 104.423 -110.068 0 0 -104.423 110.068 0zm529.932 400.304l0 104.423 -467.108 0 0 -104.423 467.108 0zm0 -200.14l0 104.411 -467.108 0 0 -104.411 467.108 0z"/>
 </g>
</svg>
